<svg id="Group_10" data-name="Group 10" xmlns="http://www.w3.org/2000/svg" xmlns:xlink="http://www.w3.org/1999/xlink" width="221.84" height="208.877" viewBox="0 0 221.84 208.877">
  <defs>
    <clipPath id="clip-path">
      <path id="Path_15338" data-name="Path 15338" d="M402.374,423.569a.145.145,0,0,1,.054.068s-.02-.024-.054-.068M423.338,388.8l.8-.663s-3.239-3.352-4.315-4.853a10.588,10.588,0,0,1-1.155-1.756l-1.085-1.109s.185-1.971-.185-2.419l1.613.377c.348.432,6.887,4.157,6.928,3.625a.862.862,0,0,1,.111-.242,53.379,53.379,0,0,1,6.325,3.477,21,21,0,0,1,3.292,2.424.766.766,0,0,0-.1.416c.036.172.633.226.8.678a5.252,5.252,0,0,0,1.42,1.972,10.651,10.651,0,0,0,2.225,1.23,6.329,6.329,0,0,0,1.853-.411l.392.227a2.128,2.128,0,0,1-1.057.382c-1.429.126-1.931.195-1.931.195s-.344-.072-.434.145a1.365,1.365,0,0,0-.095.263c-1.843-.076-3.976-.591-5.843-.43,0,0-.108-.349-.293-.445a48.864,48.864,0,0,0-5.143-.5,1.349,1.349,0,0,0-.76-.619,1.237,1.237,0,0,0-.949.185s.107-.631-.133-.868a.727.727,0,0,0-.663-.1,5.437,5.437,0,0,1-1.619-1.185m-16.991-29.556a2.13,2.13,0,0,1-.326.552c-.438.575.177,1.207.877,1.275a15.364,15.364,0,0,0,.257,2.54,3.265,3.265,0,0,1,.139.4c-.084.18-.143.29-.143.29a4.962,4.962,0,0,1-1.815,2.037c-.169-.1-.342-.2-.472-.272l-.355.742.289.084c-1.334,1.145-3.478,3.082-3.872,4.016-.578,1.375,0,.073-.94,4.992s-2.713,7-3.654,11.052-.868,6.222-.362,7.018a1.932,1.932,0,0,0,.676.437h0l-.188,1.644a9.338,9.338,0,0,0-1.085,5.879c.579,3.111,3.654,7.452,4.16,8.61s1.664,8.1,1.664,8.1a6.052,6.052,0,0,0,.271,2.134,3.822,3.822,0,0,0,.579.886.928.928,0,0,0-.163.977,3.567,3.567,0,0,0,.489.927c-.2-.151-1.088-.316-4.974,2.275-4.775,3.183-15.845,7.307-15.845,7.307s.011.423.069,1.052l-.87.111a5.515,5.515,0,0,0-3.238-.488,17.544,17.544,0,0,0-3.509.651,7.124,7.124,0,0,0,.181,3.473c.561,2.17,1.013,1.447,1.013,4.522s1.013,7.85,2.279,8.863a6.381,6.381,0,0,0,1.483,1.049,1.614,1.614,0,0,0,1.411-1.773c0-1.664.364-5.643,1.411-7.127s1.719-2.513,2.323-3.43a6.284,6.284,0,0,0,.921.622s16.351-7.018,19.571-8.1,6.987-2.23,7.669-4.25.789-7,1.062-12.939a59.056,59.056,0,0,0,3.641,7.513c1.135,1.674,2.894,4.486,2.894,4.486s.072,3.473,5.5,9.261,5.715,8.754,5.715,8.754l.937-.4a5.272,5.272,0,0,0-1.19,2.915,20.267,20.267,0,0,0-.244,3.561,7.124,7.124,0,0,0,3.408.691c2.241,0,1.654-.62,4.631.147s7.855.976,9.152,0a6.39,6.39,0,0,0,1.386-1.175,1.614,1.614,0,0,0-1.365-1.808c-1.611-.415-5.233-1.594-6.55-3.143s-2.732-3.1-3.309-3.727l.74-.317s-6.762-12.354-8.175-15.121a18.962,18.962,0,0,0-2.562-4.028,8.269,8.269,0,0,0-.628-2.267c-.5-1.195-3.471-6.22-3.489-6.249l-7.14-12.634-.39-.565c-.36-1.306-.787-2.77-1.027-3.559a4.331,4.331,0,0,0-2.256-2.185,2.35,2.35,0,0,0,.274-.638,8.649,8.649,0,0,0,.2-1.3l-.344-.777a6.659,6.659,0,0,0,.942-3.762,24.184,24.184,0,0,1,3.043,3.651,1.458,1.458,0,0,0,1.062-.4s3.744,3.6,5.191,3.69,5.029.516,6.674.48,1.886.013,2.048-.15a3.632,3.632,0,0,0,.26-.286,27.082,27.082,0,0,0,6.473-.252l.253.326s1.555-.127,3.581-.127,3.581.471,4.052.127a13.46,13.46,0,0,0,1.176-1.121c5.833,3.285,17.106,9.617,18.163,10.516,1.344,1.143,9.6,6.719,11.279,7.179a2.327,2.327,0,0,0,2.144-3.94c-1.3-1.159-10.6-5.171-12.291-5.679-1.3-.391-12.233-6.138-18.224-9.283a.489.489,0,0,0,.1-.186,9.882,9.882,0,0,0-.054-2.062c-.145-.253-.669-.742-1.085-.452a.869.869,0,0,1-.67.217,3.248,3.248,0,0,0-.922-.488c-.235,0-.488.018-.488.018s-.85-.705-1.266-.705-.995-.072-1.23.253c-.057.079-.129.217-.226.382l-.543-.278a8.257,8.257,0,0,0,.467-2.4c-.09-.651-1.3-1.863-2.713-2.785-.822-.538-1.184-.449-1.443-.359-.185.064-.318.128-.529-.039a10.5,10.5,0,0,0-1.533-.882l-.294.267s-2.984-2.243-3.654-2.984a5.018,5.018,0,0,0-.814-.814l-.326-.027-3.224-2.532.073-.579c-3.613-3.046-5.143-2.286-8.014-6.819a5.636,5.636,0,0,0-2.279-2.08c-.635-.243-1.361-.524-2.142-.811.222-.08.508-.108.348-.418a1.325,1.325,0,0,0-.578-.552,4.1,4.1,0,0,0,.67.091c.36.017.566-.148.5-.306a2.928,2.928,0,0,1,.018-.786s.42.018.884.025.617-.389.457-.823a3.141,3.141,0,0,1-.178-1.831c.071-.382.192-.284.83-.8a1.168,1.168,0,0,0,.247-.631l.677.031c2.324.164,3.6,1.063,3.292-.912a3.279,3.279,0,0,0-.684-1.768,5.583,5.583,0,0,0-2.758-.9,6.994,6.994,0,0,0-6.671-5.483,7.087,7.087,0,0,0-6.866,6.664" transform="translate(-373.88 -352.578)" fill="#f5f5f5"/>
    </clipPath>
    <clipPath id="clip-path-2">
      <rect id="Rectangle_143" data-name="Rectangle 143" width="221.84" height="208.877" fill="#f5f5f5"/>
    </clipPath>
    <clipPath id="clip-path-3">
      <path id="Path_15340" data-name="Path 15340" d="M27.975,9.329c-.014.1-.025.2-.035.3a2.827,2.827,0,0,0-.449,1.119,19.723,19.723,0,0,0-.369,3.725c.073.507.194,1.377.227,1.912-.42.606-1.019,1.449-1.692,2.33-1.021,1.336-2.257,2.709-3.005,3.845a23.7,23.7,0,0,0-1.675,2.983c-.285,1.123-.152,1.454.493,3.953a76.2,76.2,0,0,0,3.254,9.151,15.231,15.231,0,0,0,3.453,4.531c.143.265.35,1.209.944,2.764A17.936,17.936,0,0,0,31.907,49.9l.034.023-.045.03a1.27,1.27,0,0,0-.254,1.349,4.452,4.452,0,0,0,.609,1.043,1.609,1.609,0,0,0-.335,1.076,2.3,2.3,0,0,0,.328.95,1.6,1.6,0,0,0-.339.606,1.8,1.8,0,0,0,.543,1.643s.04,5.18.911,7.344A27.718,27.718,0,0,1,34.6,71.674a3.333,3.333,0,0,1-.592.574l-.42,1.295,1.091.605-.842,1.271S28.083,81.655,32.449,91q.683,1.462,1.32,2.813a36.079,36.079,0,0,0,.745,4.134c.4,1.149-.548,2.9-.469,3.8a15.141,15.141,0,0,1-.274,2.688c0,.2-.667,1.295.991,2.256l.032.018a11.941,11.941,0,0,0,.057,3.106s.064.188-2.4.256a15.687,15.687,0,0,0-7.749,2.8,32.98,32.98,0,0,1-6.174,3.027s-.024-.046-.077-.157-.329-.2-.714,0-4.794,2.334-4.794,2.334a1.85,1.85,0,0,0-.24-.7c-.245-.5-1.947-.5-2.314-.643-2.556-1.03-1.941-1.3-4.974-1.408-1.342-.047-1.71,5.005-1.61,6.086a.851.851,0,0,1-.987,1.028A22.089,22.089,0,0,0,0,133.878a10.375,10.375,0,0,0,2.444.392c1.077-.021,1.387-3.148,2.45-3.578l.5-.2s-.148-.064.884-1.422a23.955,23.955,0,0,1,3-3,5.991,5.991,0,0,0,1.55.433A8.636,8.636,0,0,0,12.072,125l2.41.348s.53-.286.624-.653-.709-1.369-.709-1.369.683-.757,3.8-1.5,3.3-.292,10.284-1.716c5.149-1.05,10.142-2.388,12.41-3.019-.509,2.923-.777,5.421-1.219,7.363a42.041,42.041,0,0,1-1.959,5.413,3.034,3.034,0,0,0-1.384,1.153,9.4,9.4,0,0,0-1.173,2.232,19.229,19.229,0,0,0-1.576,2.883,10.039,10.039,0,0,0-.276,1.214,19.463,19.463,0,0,0,3.561,3.753c1.6,1.065,1.7,2.2,3.855,3.406a10.94,10.94,0,0,0,5.382,1.707,3.2,3.2,0,0,0,2-.467l.334-1.934a9.084,9.084,0,0,0-1.207-1.629c-.612-.6-1.276-1.344-1.276-1.344s.379-.328-.295-1.29-1.617-2.7-1.617-2.7a9.909,9.909,0,0,0,.508-2.531c-.062-.779-1-1.307-1-1.307s1.514-2.2,1.25-2.723a1.4,1.4,0,0,0-.941-.641,29.249,29.249,0,0,1,1.441-4.059c.93-2.086,4.07-8.588,4.78-9.91s1.889-3.765,1.926-3.842v0a31.1,31.1,0,0,1,1.935-2.751c1.045-1.288,1.92-3.627,1.17-5.515-.616-1.551-1.35-4.459-2.128-6.065l1.512-1.022a21.687,21.687,0,0,1-2.354-2.831,16.574,16.574,0,0,1-1.026-1.993s1.459-4.516.853-7.636A24.778,24.778,0,0,1,51.4,79.3a3.634,3.634,0,0,0,.574-2.481s.674-5.984.84-6.878,1.026-1.8.856-3.19.3-1.568.368-2.72-.222-1.169.155-1.811.753-.948.439-1.929.057-1.087.141-2.036a2.833,2.833,0,0,0-.2-1.183,21.656,21.656,0,0,0,4.175,2.442,29.227,29.227,0,0,1,4.629,1.943c1.7.989,2.161,1.364,3.954.49S72.193,59.5,73.4,57.517c.592-.973,1.381-2.362,2.03-3.523,1.5-.33,3.666-2.422,3.951-2.469a13.23,13.23,0,0,1,1.792.172,9.8,9.8,0,0,1,.764.637.716.716,0,0,0,1.153-.182,9.579,9.579,0,0,0-1.037-1.519,8.365,8.365,0,0,0-1.768-.611,3.665,3.665,0,0,1,1.15-.993,7.912,7.912,0,0,1,.855-.178c.833-.224.551-.887.355-1.158s-1.835.08-1.835.08.368-.829.167-.972a1.248,1.248,0,0,0-.761-.3,5.167,5.167,0,0,0-1.435.484.587.587,0,0,0,.042-.539,1.166,1.166,0,0,0-1.114-.6,6.11,6.11,0,0,0-2.51,1c-.3.391-1.273,2.467-1.273,2.467a6.154,6.154,0,0,0-.159-1.856c-.215-.344-.643-.221-.8-.161s-.266.8-.314,1.158-.32,1.074-.386,1.566a8.189,8.189,0,0,0,.039,1.441l.05.025a13.412,13.412,0,0,1-2.4,2c-.656.224-3.285.26-4.684,1.679l-.171.174a7.842,7.842,0,0,1-2.609-1.563h0c-.117-.12-.226-.229-.326-.326a3.814,3.814,0,0,0-2.2-.967,7.246,7.246,0,0,0-2.7-4.162,8.074,8.074,0,0,0-4.922-1.029s-2.454-1.181-3.278-1.694a17.214,17.214,0,0,0-1.9-.923l-.116-.727s2.027-.19,2.437-.909a20.182,20.182,0,0,0,.378-4.1,1.592,1.592,0,0,0-.355-1.225,2.1,2.1,0,0,1-.531-1.43,3.3,3.3,0,0,0-.433-3.08c-1.167-2.106-4.823-3.024-7-2.2A6.116,6.116,0,0,0,37.9,37.321c.22,2.249,2.107,4.12,2.084,5.244a1.916,1.916,0,0,1-.182.6,46.2,46.2,0,0,0-3.906-3.875,4.355,4.355,0,0,0-2.261-.953,23.63,23.63,0,0,0-4.377-7.449,20.516,20.516,0,0,1-2.58-3.2c1.633-1.99,1.461-3.872,1.858-5.64a23.936,23.936,0,0,1,1.721-4.032,6.542,6.542,0,0,0,1.513-.409A8.513,8.513,0,1,0,37.551,2.033a8.5,8.5,0,0,0-9.576,7.3" transform="translate(0 -1.955)" fill="#f5f5f5"/>
    </clipPath>
    <clipPath id="clip-path-4">
      <path id="Path_15341" data-name="Path 15341" d="M88.524,263.806c-1.983.495-5.54,2.52-8.587,3.737a17.931,17.931,0,0,0-7.232,4.592,49.84,49.84,0,0,1-4.84,4.405,1.49,1.49,0,0,0-1.357.3c-.487.532-.357,1-.935,1.071-.995.126-3.994,2.074-4.885,2.82a31.4,31.4,0,0,0-2.561,2.1c-.395.461-1.518,1.262-1.428,1.809a.441.441,0,0,0,.15.085c.766.079,1.861-.807,2.126-.973,1.008-.632,1.345-.909,1.537-1.043a21.091,21.091,0,0,1-1.55,2.182,13.484,13.484,0,0,0-1.223,1.127c-.664.734-1.474,1.14-1.326,1.478s1.258.313,1.595.058,1.687-1.267,2-1.423.774-.384.774-.384a24.348,24.348,0,0,1-1.4,3.24c-.418.545-.812,1.986-1.087,2.167s-.883,1.427-.643,1.7,1.164-.068,1.724-.549,1.3-1.954,1.768-2.406a12.556,12.556,0,0,0,.9-1s-.582,1.731-.679,2.149a5.625,5.625,0,0,1-.65,1.62c-.356.579-1.122,1.371-.81,1.576s.872.368,1.587-.342a6.942,6.942,0,0,0,1.32-1.76c.267-.493.522-.477.783-1.242A3.312,3.312,0,0,1,65,288.74a10.516,10.516,0,0,1,2.587-1.136,1.043,1.043,0,0,1,.257,1.517c-.544.869-.89,2.617-.126,3.288a1.056,1.056,0,0,0,1.729-.491c.108-.517-.4-1.563.263-2.852a10.427,10.427,0,0,0,1.244-3.216,12.05,12.05,0,0,0-.464-3.975s3.626-3.805,6.817-4.1a39.555,39.555,0,0,0,9.806-2.581,5.02,5.02,0,0,1,2.812-.591,12.482,12.482,0,0,0,1.316,1.692,7.663,7.663,0,0,0,.79.737,18.055,18.055,0,0,0,2.761,3.2,14.873,14.873,0,0,0,1.9,1.4,4.355,4.355,0,0,0,2.143,2.3c1.633.786,3.821,1.676,3.821,1.676a98.167,98.167,0,0,1-5.051,10.782,43.837,43.837,0,0,1-4.915,6.487,1.056,1.056,0,0,0-.911,0l-2.938,2.158h0a11.9,11.9,0,0,0-6.434,5.472c-2.894,5.416-2.25,5.629-2.246,9.062a6.931,6.931,0,0,0,.07.951h0v0a10.727,10.727,0,0,0,.6,2.254l1.5,5.632c-.688,1.314-1.708,3.356-2.507,5.35-1.332,3.321-1.639,5.066-1.983,5.565s-.559.286-.509.827l.075.812a4.868,4.868,0,0,0-.882,1.33c-.147.521.294.656-.139,1.027s-.657.275-1,.794a25.932,25.932,0,0,1-1.67,1.987c-.107.107.9,1.106,1.509,1.343q.155.06.276.1l-3.038,6.277a10.477,10.477,0,0,0-6.742-.338c-3.776,1.053-7.732,3.315-11.315,4.427a38.975,38.975,0,0,0-4.061,1.367l-1.776.5a9.293,9.293,0,0,0-1.631-.519c-.755-.071-3.541-.1-3.541-.1l-1.428-.524a5.627,5.627,0,0,0-1.723,6.064c1.252,3.723,2.1,4.457,1.7,6.984s-1.163,3.526.01,6.84,5.8,4.393,5.8,4.393l.992-.7a22.178,22.178,0,0,1,.61-5.438,18.489,18.489,0,0,1,2.151-6.235s.747-.821.226-1.127-.9-.548-.9-.548,2.409-1.654,2.022-2.321a3.615,3.615,0,0,0-.54-.8l-.211-.352a102.236,102.236,0,0,1,12.346-1.031,11.254,11.254,0,0,0,3.757-.255,4.8,4.8,0,0,1,1.951-.274c2.183.087,6.047,1.135,7.635-.376.811-.772,4.361-4.789,7.64-8.535a5.748,5.748,0,0,0,1.611.908c2.1-5.766,2.57-5.3,4.115-6.389a15.874,15.874,0,0,0,3.58-3c1.007-1.451,2.7-3.855,3.638-5.18a17.931,17.931,0,0,0,1.268,1.53c1.338,1.4,3.43,4.209,3.43,4.209a8.308,8.308,0,0,0,3.427-2.069,1.383,1.383,0,0,1,.217-.121l.824.685s-4.913,7.318-5.563,10.42.338,8.316-.092,10.423,0,4.252-.175,6.569-.317,7.557-.825,8.813a7.524,7.524,0,0,0-.6,1.5c-.186.738-.41.837-.41.837s-1.305-.192-1.476.487a12.322,12.322,0,0,0-.261,3.3c.056,1.457.066,3.251.066,3.251l-.457,1.388a6.044,6.044,0,0,0,4.371,2.142c3.151.334,2.042.572,6.7,2.015s10.955-1.752,12.293-2.889,2.891-5.025,2.891-5.025l-1.643-.9s-6.218-.6-9-2.408l-2.78-1.811s.682-1.7-.02-2.124a5.7,5.7,0,0,0-1.538-.6s-.452-7.116,2.206-12.978,3.593-11.8,4.882-15.584,4.345-6.7,4.16-8.711a11.164,11.164,0,0,1,.019-4.019c.294-1.47-2.37-5.4-2.37-5.4l.185-1.167s-3.508-2.719-4.577-4.376l-.057-.089a5.192,5.192,0,0,1-.289-1.408c.021-.855-1.943-2.144-2.09-2.239a.02.02,0,0,1-.009-.006l.009.006c.025.008.089-.043-.077-.955-.2-1.093-1.526-1.322-1.526-1.322s.008-.333-.047-1.146a3.921,3.921,0,0,0-.875-1.706l.058-.1a2.253,2.253,0,0,0,1.441-.659,3.819,3.819,0,0,0,.711-1.177,3.072,3.072,0,0,0,2.114-.761,15.491,15.491,0,0,0,1.194-1.007,11.676,11.676,0,0,0,4.224-1.56,8.838,8.838,0,0,0,2.293-2.2,17.408,17.408,0,0,0,8.413-3.935A114.563,114.563,0,0,1,139,301.3a23.447,23.447,0,0,0,2.737,1.971c1.3.758,1.423.415,2.6,2.159s2.8,1.848,4.919,4.071c.668.7,1.267,1.346,1.813,1.916a10.108,10.108,0,0,0-1.336,3.515c-.586,2.789-.412,4.059-.949,5.839a10.139,10.139,0,0,1-2.176,3.455s-.616.651-2.1-.86c-1.386-1.413-.808-1.341-1.4-1.842a5.275,5.275,0,0,1-.987-1.165c-2.012.537-.282,3.1-.274,3.124a10.7,10.7,0,0,0,1.845,3.718,11.193,11.193,0,0,1,1.628,2.878s.372,2.44.46,3.621,1.456,1.2,1.456,1.2-.648,2.512-.169,3.128a1.077,1.077,0,0,0,1.119.425s-.169,1.387.278,1.751a.756.756,0,0,0,.853.119s-.03,1.12.455,1.272.63-.027.63-.027a14.718,14.718,0,0,1-.241-3.422,8.376,8.376,0,0,0,.059-2.4,25.934,25.934,0,0,1,.209-4.016,20.107,20.107,0,0,0,.183-2.246,8.787,8.787,0,0,1,1.1-2.664c.539-.758,2.206-3.067,3.923-5.057,1.175-1.362,4.368-4.338,3.763-9.505.329-1.231.578-2.251.313-2.638a9.659,9.659,0,0,1-1.233-3.863,17.4,17.4,0,0,0-2.616-2.922c-.974-1.4-2.66-3.571-4.132-4.157l-2.308-.918a21.807,21.807,0,0,0-2.224-3.812,15.579,15.579,0,0,0-2.993-2.777c-.018.033-.029.039-.031.013s.01-.019.031-.013a17.294,17.294,0,0,0,.72-2.523,2.526,2.526,0,0,1,1.01-1.946c.806-.776,2.891-7.346.924-11.338s-6.082-6.733-9.112-6.18-5.9,2.378-7.09,4.749-1.867,5.555-2.783,6.615-1.374,1.612-1.374,1.612-2.713-2.344-4.627-2.167a36.034,36.034,0,0,0-3.788.583,7.279,7.279,0,0,0-3.086-4.708,15.136,15.136,0,0,0-5.606-1.784s-1.034-4.234-6.546-5.637a56.671,56.671,0,0,1-10.747-3.612c-1.388-.7-1.584-1.213-2.446-1.213a4.78,4.78,0,0,0-1.121.176" transform="translate(-39.955 -263.63)" fill="#f5f5f5"/>
    </clipPath>
  </defs>
  <g id="Group_115" data-name="Group 115" transform="translate(105.546 99.532)">
    <g id="Group_114" data-name="Group 114" clip-path="url(#clip-path)">
      <rect id="Rectangle_142" data-name="Rectangle 142" width="143.535" height="141.013" transform="translate(-43.862 25.177) rotate(-30)" fill="#f5f5f5"/>
    </g>
  </g>
  <g id="Group_117" data-name="Group 117">
    <g id="Group_116" data-name="Group 116" clip-path="url(#clip-path-2)">
      <path id="Path_15339" data-name="Path 15339" d="M766.751,477.731a3.776,3.776,0,1,1,.107-.894,3.775,3.775,0,0,1-.107.894" transform="translate(-545.018 -339.519)" fill="#f5f5f5" fill-rule="evenodd"/>
    </g>
  </g>
  <g id="Group_119" data-name="Group 119" transform="translate(0 0.552)">
    <g id="Group_118" data-name="Group 118" clip-path="url(#clip-path-3)">
      <rect id="Rectangle_144" data-name="Rectangle 144" width="83.129" height="144.282" transform="translate(-0.003 -0.002)" fill="#f5f5f5"/>
    </g>
  </g>
  <g id="Group_121" data-name="Group 121" transform="translate(11.279 74.422)">
    <g id="Group_120" data-name="Group 120" clip-path="url(#clip-path-4)">
      <rect id="Rectangle_145" data-name="Rectangle 145" width="145.243" height="133.101" transform="matrix(0.094, -0.996, 0.996, 0.094, -13.542, 133.263)" fill="#f5f5f5"/>
    </g>
  </g>
</svg>
